<svg xmlns="http://www.w3.org/2000/svg" version="1.1" xmlns:xlink="http://www.w3.org/1999/xlink" xmlns:svgjs="http://svgjs.com/svgjs" width="1080" height="540" preserveAspectRatio="none" viewBox="0 0 1080 540">
    <g mask="url(&quot;#SvgjsMask1252&quot;)" fill="none">
        <path d="M750.064,344.225C781.172,343.202,809.51,326.214,824.482,298.927C838.911,272.629,837.212,240.242,820.947,215.037C805.926,191.761,777.759,182.993,750.064,183.608C723.587,184.196,699.504,196.292,684.432,218.069C666.568,243.88,652.172,276.268,666.659,304.115C681.919,333.447,717.018,345.311,750.064,344.225" fill="rgba(69, 67, 67, 0.59)" class="triangle-float2"></path>
        <path d="M292.632,262.08C334.978,262.752,371.873,234.382,391.676,196.946C410.24,161.853,407.784,119.03,385.789,85.979C365.885,56.07,328.537,49.355,292.632,48.116C253.539,46.767,208.79,46.242,187.632,79.142C165.352,113.787,178.382,158.162,198.887,193.887C219.504,229.807,251.221,261.423,292.632,262.08" fill="rgba(69, 67, 67, 0.59)" class="triangle-float2"></path>
        <path d="M537.085,305.225C586.091,301.626,623.21,267.864,649.969,226.651C680.26,179.998,709.78,125.744,686.389,75.277C660.027,18.402,599.57,-21.924,537.085,-16.893C480.168,-12.31,452.045,46.455,424.325,96.376C397.809,144.127,365.35,197.586,391.299,245.647C418.03,295.158,480.97,309.346,537.085,305.225" fill="rgba(69, 67, 67, 0.59)" class="triangle-float3"></path>
        <path d="M1009.451,329.904C1042.848,327.501,1063.521,297.563,1080.36,268.622C1097.34,239.438,1114.621,205.915,1099.015,175.974C1082.581,144.444,1044.904,129.88,1009.451,132.58C978.004,134.975,957.317,161.182,940.761,188.025C922.956,216.893,903.575,249.751,918.355,280.278C934.505,313.636,972.485,332.564,1009.451,329.904" fill="rgba(69, 67, 67, 0.59)" class="triangle-float3"></path>
        <path d="M985.456,332.094C1042.347,336.791,1094.154,300.075,1123.03,250.832C1152.261,200.982,1160.089,137.158,1127.913,89.156C1098.28,44.947,1038.627,43.266,985.456,45.59C937.539,47.685,886.375,58.823,863.053,100.734C840.185,141.83,860.311,189.387,882.304,230.958C906.439,276.578,934.02,327.847,985.456,332.094" fill="rgba(69, 67, 67, 0.59)" class="triangle-float2"></path>
        <path d="M242.141,599.688C271.458,597.785,291.388,573.246,305.818,547.655C319.912,522.659,329.396,493.604,316.377,468.031C302.268,440.317,273.211,423.911,242.141,422.573C208.436,421.122,173.167,432.117,155.941,461.124C138.418,490.632,144.2,527.831,162.328,556.971C179.411,584.432,209.868,601.783,242.141,599.688" fill="rgba(69, 67, 67, 0.59)" class="triangle-float3"></path>
        <path d="M98.86,329.607C118.131,330.73,140.239,330.188,150.551,313.869C161.311,296.841,155.618,274.443,144.205,257.845C134.241,243.354,116.445,238.844,98.86,238.693C80.929,238.539,61.438,241.718,52.149,257.056C42.61,272.806,46.675,292.917,56.643,308.399C65.78,322.591,82.01,328.625,98.86,329.607" fill="rgba(69, 67, 67, 0.59)" class="triangle-float3"></path>
        <path d="M308.661,588.635C353.923,590.364,394.427,563.98,418.766,525.78C445.302,484.132,460.166,431.756,436.084,388.643C411.548,344.716,358.971,327.942,308.661,328.661C259.755,329.36,209.603,348.618,187.393,392.196C166.608,432.979,188.175,478.941,212.22,517.891C234.667,554.252,265.961,587.004,308.661,588.635" fill="rgba(69, 67, 67, 0.59)" class="triangle-float1"></path>
        <path d="M421.928,223.971C452.913,224.838,484.538,214.837,501.195,188.696C519.042,160.688,520.987,124.075,503.618,95.768C486.919,68.552,453.857,59.154,421.928,59.508C390.73,59.854,358.886,70.507,343.319,97.546C327.78,124.537,333.542,158.017,349.988,184.466C365.471,209.367,392.617,223.151,421.928,223.971" fill="rgba(69, 67, 67, 0.59)" class="triangle-float3"></path>
        <path d="M52.037,289.602C86.239,291.582,124.829,286.865,142.374,257.44C160.192,227.557,148.062,189.93,128.706,161.019C111.653,135.547,82.687,122.944,52.037,122.507C20.48,122.057,-12.495,131.585,-28.511,158.779C-44.72,186.301,-38.577,220.734,-21.831,247.932C-5.945,273.734,21.788,287.85,52.037,289.602" fill="rgba(69, 67, 67, 0.59)" class="triangle-float1"></path>
        <path d="M774.932,141.816C791.758,141.51,806.666,130.766,814.119,115.677C820.833,102.084,816.997,86.242,808.629,73.599C801.176,62.338,788.435,56.601,774.932,56.473C761.171,56.343,747.913,61.612,740.114,72.951C731.057,86.119,725.989,102.884,733.2,117.147C741.015,132.603,757.616,142.131,774.932,141.816" fill="rgba(69, 67, 67, 0.59)" class="triangle-float1"></path>
        <path d="M0.398,115.34C20.895,115.693,40.379,105.283,50.57,87.496C60.706,69.805,60.37,47.396,49.035,30.448C38.737,15.049,18.894,11.442,0.398,12.476C-16.064,13.396,-30.72,21.547,-39.652,35.406C-49.507,50.699,-55.016,69.551,-46.866,85.817C-37.947,103.618,-19.509,114.997,0.398,115.34" fill="rgba(69, 67, 67, 0.59)" class="triangle-float3"></path>
        <path d="M924.501,234.465C943.291,233.335,961.515,226.27,971.249,210.158C981.312,193.501,980.842,173.074,972.088,155.693C962.266,136.191,946.336,117.511,924.501,117.338C902.463,117.163,886.664,135.875,875.586,154.927C864.43,174.113,855.255,197.53,866.881,216.435C878.18,234.809,902.97,235.76,924.501,234.465" fill="rgba(69, 67, 67, 0.59)" class="triangle-float2"></path>
        <path d="M1025.434,327.586C1043.779,327.874,1060.864,317.412,1069.51,301.23C1077.714,285.876,1073.818,267.945,1065.461,252.674C1056.674,236.618,1043.71,221.681,1025.434,220.696C1005.664,219.63,986.393,230.397,977.161,247.912C968.435,264.466,973.997,283.877,983.694,299.882C992.969,315.19,1007.538,327.305,1025.434,327.586" fill="rgba(69, 67, 67, 0.59)" class="triangle-float3"></path>
        <path d="M1073.059,294.005C1112.573,293.916,1146.578,268.874,1166.415,234.7C1186.341,200.373,1190.071,159.023,1171.896,123.738C1152.056,85.22,1116.379,52.678,1073.059,53.459C1030.706,54.222,999.687,89.578,980.205,127.192C962.47,161.435,960.214,201.428,978.97,235.123C998.257,269.772,1033.404,294.095,1073.059,294.005" fill="rgba(69, 67, 67, 0.59)" class="triangle-float1"></path>
        <path d="M629.805,485.185C673.512,484.762,709.207,455.113,731.88,417.744C755.613,378.628,771.296,329.946,747.818,290.676C724.749,252.09,674.727,245.256,629.805,247.009C588.543,248.619,548.262,264.067,526.731,299.302C504.288,336.031,503.373,382.113,524.246,419.756C545.763,458.56,585.437,485.615,629.805,485.185" fill="rgba(69, 67, 67, 0.59)" class="triangle-float2"></path>
        <path d="M284.72,623.858C338.415,622.122,379.274,579.725,403.664,531.858C425.669,488.671,423.232,439.139,400.708,396.22C376.231,349.582,337.256,308.982,284.72,305.218C225.792,300.996,164.997,325.847,135.868,377.246C107.063,428.073,121.47,489.991,151.66,540.008C180.696,588.113,228.56,625.674,284.72,623.858" fill="rgba(69, 67, 67, 0.59)" class="triangle-float2"></path>
    </g>
    <defs>
        <mask id="SvgjsMask1252">
            <rect width="1080" height="540" fill="#ffffff"></rect>
        </mask>
    </defs>
</svg>