<svg xmlns="http://www.w3.org/2000/svg" version="1.1" xmlns:xlink="http://www.w3.org/1999/xlink" xmlns:svgjs="http://svgjs.com/svgjs" width="960" height="540" preserveAspectRatio="none" viewBox="0 0 960 540"><g mask="url(&quot;#SvgjsMask1031&quot;)" fill="none"><path d="M188.625,345.884C205.986,344.39,220.054,334.252,229.874,319.857C241.577,302.702,253.385,282.528,244.717,263.657C234.966,242.428,211.891,227.953,188.625,230.055C167.669,231.949,158.1,254.123,147.715,272.422C137.539,290.352,122.894,310.19,132.924,328.201C143.082,346.442,167.823,347.674,188.625,345.884" fill="rgba(215, 7, 7, 0.4)" class="triangle-float1"></path><path d="M661.096,359.758C700.246,362.864,737.924,340.713,757.284,306.543C776.393,272.816,772.956,231.17,752.666,198.14C733.316,166.642,698.06,150.435,661.096,149.963C623.192,149.479,582.59,161.972,565.38,195.747C549.16,227.581,570.142,262.266,588.15,293.124C605.941,323.609,625.91,356.966,661.096,359.758" fill="rgba(215, 7, 7, 0.4)" class="triangle-float3"></path><path d="M826.012,43.318C840.322,42.765,851.722,33.18,859.346,21.057C867.634,7.876,874.544,-8.233,866.991,-21.848C859.29,-35.73,841.853,-40.066,826.012,-39.029C811.981,-38.111,800.67,-29.053,793.378,-17.03C785.742,-4.44,780.892,10.866,787.896,23.818C795.172,37.273,810.727,43.909,826.012,43.318" fill="rgba(215, 7, 7, 0.4)" class="triangle-float2"></path><path d="M306.705,433.553C329.189,431.65,345.309,414.078,356.19,394.311C366.594,375.41,370.77,353.594,361.421,334.15C350.67,311.792,331.513,291.509,306.705,291.397C281.762,291.285,263.799,312.169,251.127,333.653C238.183,355.599,227.827,381.864,240.214,404.129C252.843,426.829,280.821,435.744,306.705,433.553" fill="rgba(215, 7, 7, 0.4)" class="triangle-float1"></path><path d="M837.399,406.37C851.576,405.743,864.23,399.036,872.263,387.338C881.741,373.536,890.499,355.885,881.954,341.486C873.497,327.235,853.957,327.929,837.399,328.59C822.389,329.189,806.835,332.245,798.607,344.813C789.624,358.534,788.005,376.804,796.749,390.679C805.049,403.849,821.847,407.058,837.399,406.37" fill="rgba(215, 7, 7, 0.4)" class="triangle-float1"></path><path d="M333.176,291.356C363.828,292.222,390.03,271.565,405.451,245.061C420.974,218.383,425.151,185.863,410.302,158.805C394.915,130.767,365.148,112.563,333.176,113.361C302.416,114.128,276.479,135.112,262.44,162.493C249.587,187.559,254.089,216.475,267.644,241.168C281.835,267.019,303.698,290.523,333.176,291.356" fill="rgba(215, 7, 7, 0.4)" class="triangle-float3"></path><path d="M953.704,652.915C999.465,650.876,1027.288,607.018,1048.207,566.268C1066.865,529.921,1077.223,487.569,1056.724,452.228C1036.283,416.987,994.403,405.161,953.704,403.339C908.566,401.318,857.749,404.19,833.362,442.227C807.611,482.392,819.729,533.965,843.393,575.394C867.284,617.221,905.583,655.059,953.704,652.915" fill="rgba(215, 7, 7, 0.4)" class="triangle-float2"></path><path d="M579.533,286.667C593.191,287.001,607.095,282.087,614.128,270.375C621.345,258.357,620.132,243.146,612.868,231.156C605.865,219.597,593.025,214.064,579.533,213.273C564.177,212.372,546.306,213.456,538.659,226.803C531.036,240.109,539.101,256.089,547.748,268.753C555.098,279.518,566.502,286.349,579.533,286.667" fill="rgba(215, 7, 7, 0.4)" class="triangle-float2"></path><path d="M823.413,194.147C844.412,195.003,865.81,187.017,876.578,168.969C887.58,150.53,886.174,126.782,874.271,108.911C863.465,92.687,842.905,89.327,823.413,89.148C803.489,88.965,781.276,90.945,770.911,107.962C760.26,125.449,766.61,147.433,777.262,164.919C787.416,181.587,803.912,193.352,823.413,194.147" fill="rgba(215, 7, 7, 0.4)" class="triangle-float1"></path><path d="M865.998,197.493C910.161,198.561,948.365,170.107,970.974,132.155C994.192,93.181,1003.77,44.379,980.36,5.52C957.521,-32.39,910.236,-43.421,865.998,-42.097C824.418,-40.853,783.503,-24.115,762.904,12.026C742.481,47.859,749.422,91.234,769.46,127.283C790.18,164.558,823.363,196.462,865.998,197.493" fill="rgba(215, 7, 7, 0.4)" class="triangle-float2"></path><path d="M339.78,516.32C382.721,519.666,430.878,508.567,451.363,470.679C471.258,433.882,448.255,391.911,426.296,356.307C405.826,323.116,378.71,292.032,339.78,289.758C297.14,287.267,253.298,307.065,233.785,345.061C215.462,380.741,233.628,421.251,254.737,455.357C274.411,487.144,302.51,513.416,339.78,516.32" fill="rgba(215, 7, 7, 0.4)" class="triangle-float2"></path></g><defs><mask id="SvgjsMask1031"><rect width="960" height="540" fill="#ffffff"></rect></mask></defs></svg>